<svg xmlns="http://www.w3.org/2000/svg" xmlns:svgjs="http://svgjs.com/svgjs" xmlns:xlink="http://www.w3.org/1999/xlink" viewBox="29.4 106.28 228.99 75.36"><svg xmlns="http://www.w3.org/2000/svg" width="288" height="288" version="1.0" viewBox="0 0 1500 488"><g fill="#2d6cdf" class="color000 svgShape" transform="matrix(.1 0 0 -.1 0 488)"><path d="M7520 4399 c-47 -5 -92 -12 -100 -16 -8 -3 -26 -8 -40 -10 -14 -2-34 -7 -45 -12 -11 -5 -40 -15 -65 -22 -25 -7 -79 -31 -120 -53 -41 -21 -86 -45 -100 -52 -23 -13 -26 -11 -40 15 -47 87 -107 124 -202 125 -74 0 -106 -12 -156 -59 -50 -46 -67 -89 -66 -168 2 -88 36 -148 107 -185 50 -28 55 -36 33 -67 -89 -128 -140 -288 -154 -485 -15 -214 19 -382 116 -573 56 -111 170 -253 228 -284 38 -21 143 -20 211 0 56 17 180 77 224 108 15 10 30 19 35 19 4 0 30 17 58 38 28 21 69 51 91 67 237 174 544 494 708 738 75 111 157 271 157 305 0 11 5 24 10 27 15 9 12 158 -4 197 -16 37 -98 113 -191 174 -67 45 -186 104 -209 104 -8 0 -18 5 -21 10 -3 6 -16 10 -29 10 -12 0 -26 4 -31 9 -6 5 -23 11 -40 12 -16 2 -34 6 -40 10 -5 3 -44 9 -85 13 -41 4 -93 8 -115 10 -22 2 -78 0 -125 -5z m250 -158 c123 -19 327 -97 338 -129 2 -7 -9 -17 -27 -23 -108 -38 -277 -144 -451 -283 -96 -77 -398 -378 -478 -477 -120 -149 -282 -411 -282 -455 0 -8 -7 -14 -15 -14 -14 0 -95 155 -95 183 0 9 -4 18 -9 21 -9 6 -12 20 -30 166 -23 178 12 374 96 535 88 171 262 333 438 408 46 19 98 40 105 41 198 45 263 49 410 27z m-912 -36 c39 -32 38 -77 -2 -111 -32 -28 -47 -29 -86 -9 -52 27 -50 113 3 135 36 14 54 11 85 -15z m1234 -142 c-6 -2 -10 -9 -7 -14 4 -5 -2 -6 -11 -2 -12 4 -15 3 -10 -5 5 -8 1 -10 -10 -5 -13 5 -15 3 -9 -7 5 -8 4 -11 -3 -7 -15 10 -42 -3 -42 -20 0 -10 -6 -12 -21 -8 -14 5 -19 4 -15 -4 5 -7 1 -9 -9 -5 -11 5 -18 0 -22 -14 -3 -11 -12 -23 -20 -26 -8 -3 -11 -1 -8 4 3 6 3 10 -2 10 -11 -1 -49 -30 -39 -30 5 0 3 -7 -4 -15 -7 -9 -19 -14 -27 -11 -7 3 -13 1 -13 -4 0 -6 -5 -9 -12 -7 -8 1 -11 -9 -9 -33 1 -19 5 -37 6 -39 8 -7 56 10 51 18 -3 5 2 8 12 7 9 0 16 4 15 11 -2 7 4 10 13 6 9 -3 14 0 12 8 -2 8 3 13 10 11 15 -3 49 19 51 33 1 5 7 10 14 11 34 3 38 5 31 17 -4 6 -4 9 1 5 4 -4 14 0 22 10 8 9 12 11 8 5 -8 -17 -3 -16 39 4 19 9 33 20 30 24 -2 4 1 11 7 15 8 5 9 3 4 -6 -6 -9 1 -11 26 -6 26 5 21 1 -21 -17 -94 -40 -141 -67 -245 -138 -277 -188 -605 -518 -777 -781 -28 -43 -53 -78 -55 -78 -5 0 26 54 57 100 10 14 15 31 12 39 -2 8 0 11 6 8 14 -9 35 19 26 34 -4 7 -3 9 4 5 12 -7 44 33 36 46 -3 4 1 8 9 8 18 0 42 28 33 37 -3 4 -13 -2 -21 -13 -12 -17 -13 -15 -2 16 7 20 20 48 30 63 19 29 23 67 7 67 -6 0 -10 -6 -8 -12 2 -7 -2 -15 -7 -16 -20 -7 -35 -25 -28 -35 3 -6 1 -7 -5 -3 -7 4 -12 2 -12 -3 0 -21 -2 -26 -12 -38 -6 -7 -14 -10 -19 -8 -10 7 -31 -30 -21 -40 4 -3 0 -5 -8 -3 -9 2 -14 -4 -14 -14 1 -10 -2 -16 -6 -13 -12 7 -41 -36 -33 -48 3 -6 1 -7 -5 -3 -11 6 -16 -6 -13 -26 0 -5 -4 -7 -10 -5 -6 1 -14 -4 -17 -12 -3 -9 0 -11 8 -6 9 5 11 4 6 -4 -4 -6 -12 -9 -17 -6 -9 6 -13 -7 -10 -35 1 -11 0 -12 -7 -3 -10 16 -75 -94 -68 -114 3 -8 2 -12 -2 -9 -14 8 -43 -64 -37 -88 5 -17 4 -18 -4 -6 -6 8 -11 11 -11 5 0 -5 -3 -21 -7 -34 -5 -19 -3 -22 8 -16 8 5 11 4 6 0 -12 -13 -47 -16 -47 -4 0 5 -5 7 -12 3 -7 -5 -8 -3 -3 5 5 9 10 10 18 2 7 -7 17 9 34 57 52 148 210 378 410 597 101 110 283 285 297 285 3 0 6 -7 6 -16 0 -8 -4 -12 -10 -9 -5 3 -10 2 -10 -4 0 -5 -9 -13 -20 -16 -11 -4 -19 -9 -16 -13 2 -4 0 -16 -5 -27 -7 -18 -8 -18 -8 -2 -1 10 -6 15 -11 12 -6 -4 -8 -11 -4 -16 3 -5 2 -8 -3 -7 -14 4 -53 -26 -53 -41 0 -8 -3 -12 -6 -8 -9 9 -44 -25 -37 -36 3 -6 1 -7 -5 -3 -10 6 -27 -10 -27 -26 0 -5 -3 -8 -7 -8 -13 0 -50 -41 -52 -59 -2 -9 -7 -15 -12 -14 -13 2 -35 -18 -29 -27 3 -5 1 -11 -5 -15 -5 -3 -10 -18 -10 -32 0 -13 -9 -38 -21 -54 -20 -29 -20 -67 1 -54 6 4 7 11 4 17 -4 6 -2 8 3 5 10 -7 28 20 25 35 -1 5 3 7 10 5 7 -1 12 3 13 8 0 6 8 20 17 33 11 17 17 20 21 10 4 -8 6 -7 6 5 1 28 31 67 52 67 17 0 34 16 34 33 0 4 5 7 10 8 18 1 35 21 28 32 -3 5 -1 7 5 3 10 -6 27 10 27 28 0 5 8 10 18 12 28 4 46 23 42 45 -2 10 0 19 6 19 5 0 9 -5 9 -11 0 -5 5 -7 10 -4 6 4 7 11 4 17 -4 6 -3 8 3 5 17 -11 56 39 48 62 -3 12 -12 21 -20 21 -7 0 -15 7 -19 15 -10 28 238 211 399 293 44 23 85 41 90 41 6 0 4 -3 -3 -6z m180 -100 c2 -32 -3 -78 -11 -98 -47 -115 -184 -340 -241 -395 -3 -3 -25 -30 -50 -60 -119 -147 -355 -378 -480 -470 -18 -14 -45 -34 -59 -46 -113 -91 -320 -200 -391 -205 -52 -4 -60 0 -60 30 0 64 55 182 153 331 39 58 73 107 76 110 4 3 22 25 41 50 69 89 321 351 405 420 163 135 243 194 356 261 130 77 257 112 261 72z m89 -180 c-70 -179 -248 -419 -496 -669 -176 -177 -315 -295 -470 -397 -144 -95 -318 -169 -357 -154 -7 3 0 6 15 6 16 1 26 5 22 10 -3 5 0 13 6 17 8 4 9 3 5 -4 -4 -7 -1 -12 9 -12 9 0 14 4 11 9 -4 5 4 7 16 4 19 -4 20 -3 8 7 -12 9 -11 10 8 5 19 -6 33 3 76 47 29 29 56 60 59 68 5 13 5 13 6 0 1 -8 -15 -32 -35 -52 -36 -39 -29 -49 16 -23 14 8 19 14 10 15 -10 0 -7 5 8 16 12 8 27 12 32 9 5 -3 20 1 32 9 12 9 18 16 13 16 -6 0 -2 7 8 15 11 7 26 11 35 8 9 -4 13 -2 9 4 -8 12 20 39 30 30 10 -11 44 13 37 26 -4 7 -4 9 1 5 4 -4 16 -3 26 3 21 11 15 41 -7 32 -7 -3 -16 1 -19 9 -3 8 -15 14 -25 15 -11 1 -18 -2 -15 -6 7 -12 -32 -44 -44 -36 -6 3 -11 1 -11 -4 0 -6 -6 -10 -12 -8 -7 1 -12 -3 -11 -10 2 -8 -4 -10 -14 -6 -12 5 -14 3 -8 -7 5 -9 4 -11 -3 -6 -7 4 -12 2 -12 -3 0 -6 -3 -10 -7 -10 -5 1 -15 1 -23 0 -13 -1 -13 -2 0 -11 12 -8 9 -10 -13 -10 -16 0 -26 -4 -22 -9 7 -12 -32 -34 -44 -26 -5 3 -17 2 -26 -1 -13 -6 -14 -9 -3 -16 9 -6 5 -7 -11 -3 -15 5 -21 3 -17 -3 3 -6 1 -14 -5 -18 -8 -5 -9 -3 -4 6 6 10 4 12 -9 7 -10 -4 -30 -9 -44 -12 -20 -4 -17 -2 8 8 379 149 948 696 1147 1102 38 77 53 94 27 31 -5 -15 -4 -17 6 -11 9 5 11 4 6 -4 -4 -6 -11 -9 -15 -7 -11 7 -43 -63 -35 -76 5 -7 2 -8 -6 -3 -10 6 -12 4 -7 -8 3 -9 2 -16 -3 -14 -11 3 -79 -102 -76 -117 2 -6 1 -8 -2 -3 -2 4 -20 -13 -39 -38 -32 -42 -40 -59 -42 -90 -1 -5 -6 -3 -11 5 -7 10 -10 11 -11 3 -3 -28 -4 -32 -12 -40 -5 -4 -12 -8 -17 -8 -13 0 -90 -98 -84 -107 3 -5 0 -7 -7 -6 -7 2 -13 -3 -14 -9 0 -7 -3 -12 -6 -10 -11 4 -39 -25 -33 -34 3 -5 0 -8 -8 -7 -7 2 -12 -3 -11 -9 2 -7 -2 -12 -9 -10 -11 2 -13 -2 -17 -34 0 -6 -7 -9 -15 -6 -15 6 -40 -16 -30 -26 7 -6 -60 -68 -73 -68 -13 -1 -43 -31 -38 -39 5 -8 -57 -56 -68 -52 -5 1 -11 -7 -14 -18 -3 -11 -16 -23 -29 -26 -13 -3 -21 -11 -17 -17 3 -5 1 -7 -4 -4 -6 4 -14 0 -17 -8 -3 -8 -9 -15 -13 -14 -23 4 -30 -3 -25 -27 3 -17 9 -23 20 -19 8 3 20 1 26 -4 7 -6 17 -6 26 -1 8 6 11 10 6 10 -5 0 -3 6 4 14 6 8 19 12 27 9 12 -5 14 -3 8 8 -4 8 -5 11 0 7 11 -11 36 12 28 25 -3 5 -2 7 3 4 13 -8 39 9 39 25 0 7 7 13 15 13 8 1 14 7 12 15 -2 8 0 12 4 8 8 -9 66 31 59 41 -4 8 48 64 59 62 3 -1 6 2 5 5 -2 11 54 63 64 61 6 -1 11 3 12 10 0 15 14 28 28 28 6 0 17 11 24 25 7 14 13 21 13 17 0 -4 15 9 33 29 17 21 31 42 29 47 -1 4 2 6 7 3 9 -6 26 22 22 37 -1 5 3 6 8 3 13 -8 34 21 25 35 -4 7 -3 9 3 6 14 -9 47 29 38 43 -3 6 -1 9 7 8 7 -2 12 3 10 10 -1 8 2 11 8 7 10 -6 15 9 10 30 -1 6 2 7 5 3 9 -9 48 39 41 50 -7 11 11 37 26 37 7 0 12 8 12 18 -1 9 1 15 5 12 4 -2 23 24 42 58 47 84 61 116 53 129 -4 6 -2 8 3 5 13 -8 27 39 17 55 -4 7 -3 8 4 4 7 -4 12 0 13 11 0 10 3 13 5 6 3 -6 -9 -46 -25 -90z" class="color000 svgShape"/><path d="M7044 3909c-26-9-99-103-142-181-34-63-57-125-78-208-18-74-18-302 0-355 17-51 50-69 95-54 38 14 52 37 44 75-3 16-6 81-6 144 0 115 11 175 49 270 18 46 106 184 124 195 19 12 11 71-12 92-30 26-48 32-74 22zM3820 2711c-15-29-12-104 6-129l15-22 1253 0c1201 0 1254 1 1269 18 11 12 17 36 17 69 0 91 130 83-1293 83-1232 0-1256 0-1267-19zm2469-8l-75-4-16-49-16-50 91 0c49 0 88-2 85-5-3-3-571-5-1264-5-1125 0-1259 1-1260 15-1 8 0 10 2 3 7-20 194-12 194 8 0 8-7 14-16 14-9 0-18 9-21 20-3 11-12 20-19 20-8 0-17 7-20 15-8 19-110 21-117 3-3-8-6-6-6 5-1 16 65 17 1267 15 697-1 1233-4 1191-5z" class="color000 svgShape"/><path d="M3965 2690c-3-6 5-10 19-10 16 0 26-6 26-14 0-7 9-16 20-19 11-3 20-12 20-20 0-18 30-27 93-27 35 0 47 4 47 15 0 8-7 15-16 15-9 0-18 9-21 19-3 11-12 22-22 24-11 3-9 5 7 6 16 1 22-5 22-19 0-13 7-20 20-20 13 0 20-7 20-20 0-20 7-20 899-20l900 0 4 43 4 42 1-42 2-43 75 0c73 0 76 1 85 28 6 15 14 34 19 43 6 9 7 20 4 23-11 11-2221 7-2228-4zM8627 2712c-11-12-17-36-17-69 0-91-129-83 1288-83l1251 0 15 22c18 25 21 100 6 129-11 19-35 19-1269 19-1206 0-1259-1-1274-18zm2528-62l-1-60-1258 0-1258 0-2 60-1 60 1260 0 1261 0-1-60z" class="color000 svgShape"/><path d="M8765 2690c-3-6 5-10 19-10 16 0 26-6 26-14 0-7 9-16 20-19 11-3 20-12 20-20 0-18 30-27 93-27 35 0 47 4 47 15 0 8-7 15-16 15-9 0-18 9-21 19-3 11-12 22-22 24-11 3-9 5 7 6 16 1 22-5 22-19 0-13 7-20 20-20 13 0 20-7 20-20 0-20 7-20 899-20l900 0 4 43 4 42 1-42 2-43 71 0c83 0 109 11 109 46 0 13 7 27 15 30 8 4 12 10 9 15-7 13-2241 12-2249-1zM1635 2273c-75-10-110-43-103-99 2-23 12-34 48-51l44-23 5868 0c3228 0 5876 4 5886 8 9 5 31 15 47 23 24 12 31 22 32 49 3 38-8 56-47 80-22 13-695 15-5885 16-3223 1-5873-1-5890-3zm10473-30c-1260-3-1268-3-1268-23 0-13 7-20 20-20 13 0 20-7 20-20 0-13 7-20 20-20 11 0 20-4 20-9 0-16-43 1-47 20-3 9-13 19-24 22-11 3-19 14-19 26l0 21-990 0c-851 0-990-2-990-14 0-15-81-59-135-73-16-4 249-10 590-13 341-3-1238-6-3510-6-2271-1-4116 2-4100 6 21 5 24 8 9 9-19 1-48 31-73 79l-12 22 5878-2c3233-2 5308-4 4611-5z" class="color000 svgShape"/><path d="M1640 2233 c0 -4 10 -21 22 -39 16 -24 34 -34 71 -43 64 -15 2227 -16 2227 -1 0 6 9 10 20 10 13 0 20 7 20 20 0 13 7 20 20 20 13 0 20 7 20 20 0 20 -7 20 -1200 20 -660 0 -1200 -3 -1200 -7z" class="color000 svgShape"/><path d="M4050 2219 c0 -12 -8 -23 -20 -26 -11 -3 -20 -12 -20 -19 0 -8 -10 -19 -22 -24 -14 -5 294 -9 787 -9 618 -1 814 2 823 11 7 7 58 14 130 18 97 4 126 9 169 30 29 14 53 28 53 33 0 4 -427 7 -950 7 l-950 0 0 -21z" class="color000 svgShape"/><path d="M5970 2226c0-8-24-26-52-41-45-24-70-29-168-35-88-5-47-7 170-7 199-1 274 2 250 8-59 17-140 60-140 75 0 9-11 14-30 14-19 0-30-5-30-14zM6050 2233c0-12 109-60 153-68 20-4 40-11 42-16 8-12 2435-12 2435 0 0 5 18 12 40 16 22 4 40 11 40 16 0 5 9 9 20 9 11 0 20 5 20 10 0 6 9 10 20 10 11 0 20 7 20 15 0 13-144 15-1240 15-1096 0-1240-2-1240-15 0-8 9-15 20-15 11 0 20-4 20-10 0-5 9-10 20-10 11 0 20-4 20-9 0-4 19-13 43-19 35-9 36-10 7-6-48 6-140 52-140 70 0 11-27 14-150 14-82 0-150-3-150-7zM2012 1834c-154-34-253-131-291-287-6-26-11-56-11-67 0-11-3-20-7-21-5 0-34-2-66-4-81-4-87-12-87-110 0-98 7-107 82-108 29 0 59-4 66-10 9-7 12-91 12-357 0-311 2-349 17-361 22-19 226-20 245-1 10 10 13 89 13 362 0 191 4 352 8 357 5 4 64 8 132 8 150 0 154 3 154 110 0 108-3 110-157 110l-127 0 2 30c2 19 15 41 37 62 32 31 39 33 105 33 38 0 82-5 95-12 31-14 57 5 76 55 7 18 21 49 32 69 11 22 18 52 16 70-4 40-31 55-133 75-85 16-130 15-213-3zm-276-400c-3-8-19-14-35-14-33 0-34-2-45-87l-6-43 42-2 43-1-45-7-45-7 48-1 47-2 0-370 0-370 108 2 107 2-105 6-105 6 108 2c96 2 107 0 107-15 0-16-12-18-115-18l-115 0 0 374 0 374-80-5-80-5 0 89 0 88 80 0 80 0 2 43c1 38 2 39 5 9 3-19 2-40-1-48zm514-91l0-88-150 0c-82 0-150 3-150 8 0 4 30 8 68 9l67 1-65 7-65 7 67 1 66 2 12 50c7 28 16 50 21 50 4 0 6 7 3 15-4 10-27 15-82 18-45 2-18 4 66 5l142 2 0-87zM5844 1809c-17-19-19-35-16-201 3-135 1-183-9-188-6-5-37 1-67 11-30 10-78 19-106 18l-51-1 44-9c61-12 76-20 24-13l-41 5-13-55c-7-31-16-56-20-56-4 0-10-8-12-17-2-10-2-2 1 17 3 19 6 53 6 75l1 40-110-1c-80-1-99 1-70 7 22 4 74 9 115 10 71 1 72 2 30 10-116 20-215 4-337-56-167-82-263-235-263-421 0-156 41-259 140-354 103-99 237-149 402-150 94 0 146 10 248 46 80 29 83 29 95 2 9-21 19-24 107-30 122-9 149-2 160 40 5 18 7 309 6 647-3 601-3 614-23 629-15 11-47 15-121 16-90 0-103-2-120-21zm236-649l0-645-115 0-115 0 0 43 0 42-50-25c-57-29-60-30-60-11 0 17 24 28 45 20 8-4 15-2 15 3 0 5 6 10 13 10 6 0 20 4 30 8 13 6 17 2 17-18 0-32 14-37 118-39l87-2-95-6-95-6 98-2 97-2 0 623 0 622-95-3-95-3-2-202c-2-171-3-186-8-97l-6 105-2-106c-2-106-2-107-26-105-13 0-22 4-20 8 7 10-61 29-82 22-16-5-17-4-4 6 12 9 9 11-15 6-26-5-27-4-9 5 17 9 34 6 83-14l61-25 0 217 0 216 115 0 115 0 0-645zm-416 44c82-21 143-50 156-73 13-25 13-266 0-291-26-48-186-110-285-110-173 0-296 100-297 240-2 185 196 294 426 234zm134-6c-2-7 4-14 12-14 8-1 22-2 30-3 12-1 12-3 2-10-11-7-11-9 2-14 23-9 24-335 1-343-8-4-12-10-9-15 3-5 0-8-7-7-7 2-13-4-14-12 0-8-7-15-15-16-36-2-41-5-34-16 4-6 3-8-4-5-5 4-18 4-27 1-13-5-14-8-3-15 10-7 10-9-3-9-9 0-24-9-34-20-10-11-50-30-88-42-66-20-69-22-46-33 13-7 48-18 77-25 28-6 52-16 52-21 0-12 0-12-93 12-60 15-102 19-162 16-44-2-61-2-37 0 23 2 42 8 42 13 0 5 10 10 23 12 13 2-11 11-55 21-43 10-80 17-82 15-2-2-13 5-23 15-11 9-23 14-26 10-4-3-7 17-7 45 0 59-8 84-24 75-6-3-8-3-4 2 4 4 0 21-8 37-9 17-13 32-11 35 3 2 8-5 12-17 12-37 76-100 129-128 47-25 60-27 166-26 130 0 195 19 273 78l42 32 3 160 2 160-41 23c-30 17-38 26-28 32 18 11 19 11 17-3zM9367 1812c-15-17-17-77-17-654 0-579 1-637 17-649 11-10 47-14 125-14 97 0 111 2 124 19 12 17 14 121 14 648 0 744 16 668-143 668-88 0-106-3-120-18zm241-33c3-17 0-20-13-15-9 3-60 7-113 8l-97 2 110 6 110 6-112 2-113 2 0-630 0-630 93 2 92 2-90 6-90 6 113 2c101 2 113 0 110-15-2-9-6-16-10-15-5 1-57 2-118 2l-110 0 0 643 0 642 117-2c113-1 118-2 121-24zm-95-694c-11-8-17-34-21-87-4-68-2-78 17-97 15-15 20-29 16-43-9-25-17-16-40 46-16 44-17 57-5 133 8 59 10 132 5 238-6 139-5 156 11 185l19 31 7-197c6-174 5-199-9-209zM12372 1807l-22-23 0-625c0-524 2-628 14-645 13-17 27-19 126-19 105 0 113 1 131 24 20 25 27 111 9 111-5 0-10 16-10 35 0 19 5 35 10 35 6 0 10 8 10 19 0 26 78 93 100 86 9-3 80-69 156-146 76-77 147-145 156-150 21-11 280-21 326-13 71 13 4 24-153 24l-160 0-90 91c-50 50-125 122-167 161l-78 70-60-53-60-52 0-111 0-111-115 2-115 2 0 641 0 641 115 2 115 2 0-367c0-202 4-369 9-372 5-3 27 14 50 39 23 25 44 45 47 45 3 0 75 63 159 140l154 140 170 0c156 0 214 9 158 24-36 9-303 7-329-3-28-12-54-35-305-274-40-38-77-66-83-62-8 5-9 100-4 334 6 326 6 326-15 354-22 26-25 27-125 27-94 0-104-2-124-23z" class="color000 svgShape"/><path d="M12410 1679l0-91 28 6c15 2 50 7 77 10l50 5-45-13c-68-21-110-39-110-48 0-12 18-10 48 6 40 20 102 31 102 17 0-6-9-11-19-11-11 0-21-4-23-9-1-5-26-20-55-35l-52-26-3-408c-2-224-1-435 0-470l4-62 84 0 84 0 2 98c1 94 2 95 8 32l7-65 1 63c1 34 2 65 3 70 1 11 41 51 49 49 13-4 71 44 65 53-4 6 2 7 12 3 10-4 21-12 26-19 4-7 15-10 25-7 9 3 14 2 9-2-10-11 33-56 46-48 6 3 7 1 4-4-4-6 0-16 8-23 8-7 15-9 15-5 0 4 7 2 15-5 8-6 13-17 12-23-1-6 5-11 13-12 8 0 15-7 15-15 0-8 7-15 15-15 8 0 15-6 15-13 0-7 11-18 25-25 14-7 25-19 25-27 1-8 7-14 14-12 7 1 10-1 7-6-3-5 5-18 17-28 20-17 35-19 182-14 140 5 178 9 133 14-7 0-13 6-13 11 0 18-16 36-26 29-5-3-8-2-7 3 4 12-78 84-86 75-4-4-6 0-4 8 2 8-2 14-9 13-6-1-17 4-23 12-7 8-9 15-5 15 5 0 0 9-10 20-10 11-21 17-25 15-8-5-37 23-41 40-2 6-10 9-19 8-10-2-11-1-2 3 9 4 5 13-13 30-15 13-30 22-34 20-8-5-62 45-64 61-1 4-6 7-10 5-5-1-6 2-3 6 6 11-24 41-38 39-6-1-11 10-11 25-1 15 1 25 5 23 11-7 31 20 22 29-4 4-2 7 3 6 21-5 36 0 30 10-4 6-1 9 6 8 7-2 13 4 14 12 0 8 6 15 13 15 6 0 11 3 10 6-4 10 34 49 42 44 4-3 11 2 14 11 4 9 9 14 13 11 10-10 34 14 26 27-3 6-3 8 2 4 10-10 37 11 29 23-3 5 0 10 5 10 6 1 17 2 24 3 6 1 11 7 10 14-2 7 3 11 10 9 6-1 11 4 9 11-1 8 2 11 7 8 9-6 26 11 26 27 0 10 19 10 22 0 1-4-75-75-168-158l-170-150 80-75c43-41 156-148 250-237 93-90 172-163 175-163 13 0 5 18-17 41-23 24-321 307-407 387l-45 42 60 57c33 32 89 83 125 113 147 124 266 238 257 247-4 3-33-17-65-45-32-28-59-44-59-37 0 8 5 13 11 12 6-1 10 4 8 11-1 7 4 15 12 18 8 3 12 13 9 25-5 18-15 19-143 19-129 0-139-1-145-20-3-11-12-19-18-17-7 1-11-4-9-11 1-8-2-11-7-8-11 7-33-19-23-28 4-4 1-6-6-4-11 2-25-11-39-40 0-2-9-5-20-6-10-2-18-9-18-17 0-8-7-14-15-14-8 0-15-7-15-15 0-8-4-15-10-15-20-1-65-38-78-64-7-14-17-26-24-26-19 0-94-66-87-77 4-6 2-8-4-4-6 3-13 2-17-4-20-32-25 7-27 193-2 188-2 193-8 77l-5-125-5 152c-3 83-2 149 3 146 4-2 7 59 7 136l0 141-90 0-90 0 0-91zM2789 1459c-20-4-49-10-65-13-65-12-179-79-239-141-104-106-139-199-133-355 3-92 7-112 33-165 36-73 46-86 111-150 102-99 261-155 442-155 159 0 326 55 423 139 59 49 122 149 148 230 14 44 14 208 0 252-58 181-190 297-396 350-81 20-254 25-324 8zm316-140c-87-15-110-24-107-42 3-20-2-21-28-4-14 8-23 9-28 2-4-5-44-10-89-10-76 0-85-2-110-27-15-15-24-30-21-33 8-8 39 6 33 16-10 15 31 28 61 19 16-5 21-9 11-9-54-3-154-79-191-146-13-24-15-25-10-6 4 16 3 21-5 17-7-5-8-1-4 9 3 11 8 13 12 6 4-6 17 6 32 28 13 21 27 37 32 34 4-2 7 1 7 7 0 23 33 80 46 80 18 0 28 19 16 33-8 9 1 13 36 15 26 2 92 7 147 12 55 4 125 7 155 7l55 1-50-9zm-45-118c69-26 114-63 146-117 53-90 25-226-59-287-31-22-48-31-110-56-36-14-168-14-204 0-77 32-96 43-133 78-22 21-40 45-40 54 0 9-4 19-10 22-5 3-10 39-10 79 0 62 4 78 29 118 54 84 141 127 263 128 54 0 94-6 128-19zm-364-411c69-60 116-75 239-75 91 0 118 4 156 21 58 27 115 77 139 123 11 20 19 29 19 21 0-8-6-24-14-34-8-10-12-23-9-27 3-5-3-9-13-10-10 0-13-3-5-6 6-2 12-15 12-28 0-14 10-34 23-46l22-21-23 11c-13 7-25 25-29 42-7 38-17 37-20-2-3-33-18-59-37-59-6-1-24-7-41-16-20-9-23-13-9-10 26 4 54-10 54-29 0-20-82-33-235-37-71-2-111-2-87-1 23 2 42 8 42 14 0 5 10 9 23 10 41 2-77 28-135 30-33 1-63 8-69 15-9 11-16 56-18 112-1 7-6 10-11 7-6-4-9-1-8 6 2 7-3 13-11 14-8 0-15 9-16 20-2 11-6 29-9 40-4 11 2 4 13-16 11-20 37-51 57-69zM4075 1455c-184-46-306-137-373-277-53-113-64-200-37-303 63-244 281-395 572-395 195 0 358 61 465 174 41 42 61 75 109 177 7 15 25 156 21 170 0 3-4 28-7 55-3 27-10 58-14 69-72 174-207 287-394 329-82 19-270 19-342 1zm280-250c68-21 120-57 152-108 25-37 28-52 28-122 0-69-3-85-25-116-59-85-150-129-268-129-167 0-299 108-301 247-1 28 4 55 9 58 6 3 10 15 10 26 0 32 90 114 151 137 66 25 172 28 244 7zm-655-287c0 7 25-12 55-43 30-30 55-59 55-65 0-5 4-10 9-10 5 0 32-22 60-49 54-53 57-52 78 9l12 35-5-35c-3-19-14-43-23-53-16-17-20-15-81 38-35 30-69 55-75 55-7 0-25 18-40 40-15 22-32 40-37 40-11 0-5-11 31-59 14-19 21-32 14-28-6 4-14 3-18-3-8-14 26-70 38-63 6 3 7 1 4-4-9-15 40-66 55-57 6 4 8 3 5-3-4-6 0-16 8-23 8-7 15-10 15-6 0 4 13 0 28-8 16-8 29-22 29-30 0-13-4-13-28 0-53 27-135 117-168 185-31 64-56 173-32 139 7-10 11-11 11-2zM7230 1455c-208-48-350-170-409-354-14-44-14-208 0-252 72-228 290-368 572-369 97 0 277 33 277 52 0 4 8 8 18 8 21 0 105 51 146 89 50 47 112 147 135 220 14 44 14 208 0 252-38 121-137 240-245 297-125 65-347 91-494 57zm281-250c67-24 117-61 150-112 52-84 36-208-36-279-31-30-51-41-128-73-36-14-168-14-204 0-62 25-79 34-110 56-55 40-85 103-85 178 0 105 57 182 169 225 61 24 183 26 244 5zm192-353c-31-8 17-112 52-112 7 0 20 9 30 20 10 11 23 20 28 20 26 0-48-58-80-63-42-7-63-23-63-48 0-10-9-23-20-29-11-6-20-8-20-4 0 3-6 2-12-4-7-5-33-12-58-16-32-4-38-3-20 3 22 8 20 9-15 10-23 1-45-3-50-8-14-12-195-25-195-13 0 5 25 12 57 15 31 3 59 11 63 17 4 7 25 11 46 10 89-4 112-1 117 19 3 13 21 24 53 34 45 13 49 17 52 47 2 18-2 38-8 44-9 8-11 7-10-4 5-34-1-60-13-60-7 0-30-9-51-20-28-14-44-17-57-10-21 12-60 14-42 2 6-4-32-6-85-5-65 2-90 0-77-6 23-11 5-14-20-5-13 5-14 8-3 15 9 6 6 9-10 9-15 0-21-4-16-12 4-7 3-8-5-4-6 4-9 11-6 16 3 4-1 11-7 14-7 3 1 2 17-2 40-9 203-9 240 1 18 5 25 4 17-1-11-7-10-11 4-16 22-8 45 11 26 23-9 5-6 11 12 19 39 18 102 79 117 114 11 27 14 29 19 12 5-12 2-20-7-22zM8490 1447c-77-23-172-68-197-93-8-7-20-17-27-21-22-13-88-106-109-152-24-54-47-161-47-218 0-56 23-142 57-211 61-128 205-226 381-261 69-14 220-14 296 0 163 31 300 95 293 138-10 54-98 181-127 181-11 0-34-8-52-18-32-18-74-32-153-52-105-26-250 3-324 67-99 85-107 227-18 321 95 100 289 121 459 49 21-9 48-14 60-12 28 5 66 49 103 116 43 80 28 104-87 143-155 52-376 62-508 23zm99-206c23-6 22-7-15-18-108-33-180-115-191-217-11-104 32-188 126-247 25-16 41-29 37-29-5 0-2-7 5-17 13-15 11-15-18 1-18 9-33 12-33 6 0-5 17-18 37-28l36-19-31-5c-20-3-37 1-43 9-6 7-15 11-19 8-4-3-11 10-14 28-3 17-8 43-11 56-6 31-25 52-39 44-6-3-8-3-4 1 4 5-3 27-15 49-17 32-22 59-22 117 0 65 4 82 29 125 17 28 28 50 25 51-2 0 2 8 9 17 8 9 20 13 28 10 9-3 12 0 9 8-14 40 50 68 114 50zM10212 1450c-265-70-434-304-392-543 45-263 272-427 588-427 166 0 310 48 418 137 95 79 152 187 170 322 15 118-42 267-141 366-114 114-255 165-455 164-80 0-137-6-188-19zm526-185c17-14 36-25 43-25 8-1 34-19 59-42 25-22 36-36 25-30-11 5-29 20-39 31-25 28-51 27-81-4-29-28-33-71-10-115 11-21 15-58 14-130-2-95-3-101-22-98-17 3-21-4-24-38-4-46 25-94 57-94 10 0 22-4 25-10 3-5-3-10-14-10-11 0-36-16-55-35-40-40-46-42-39-16 7 26-33 54-58 41-41-22-39-7 4 26 25 19 48 42 51 51 9 22-3 36-20 22-7-6-11-15-8-20 3-5 2-8-3-7-14 4-54-23-48-32 3-6 0-8-7-5-7 3-33-2-58-9-25-8-36-15-25-16l20-1-20-9c-27-12-43-12-25 0 13 9-36 12-187 14-12 0-20 3-17 7 2 4-2 10-8 13-7 3 1 2 17-2 62-15 218-8 269 12 133 51 207 196 161 316-10 25-17 61-16 80 2 30-5 42-51 84-29 27-45 44-36 37 24-18 61-10 73 17 12 28 17 28 53-3zm-202-66c118-45 191-161 165-266-21-83-67-137-146-172-16-7-38-17-47-22-24-12-144-11-193 2-83 21-136 56-173 113-24 36-27 51-27 121 0 70 3 85 27 121 15 23 42 52 60 65 84 60 230 77 334 38zm-510-203c-4-78-3-114 3-101 9 18 10 18 10-6 1-14 16-42 36-63 35-38 47-64 23-50-7 5-33 8-57 9-56 0-56 0-55 189 1 153 6 175 31 155 12-11 14-34 9-133zM11538 1455c-27-7-48-10-48-7 0 3-5 1-12-6-7-7-18-12-25-12-17 0-102-40-127-60-95-74-135-129-185-253-14-36-14-248 0-284 66-164 151-250 299-306 101-38 152-47 258-47 86 0 239 21 263 36 5 3 19 7 31 9 45 9 147 66 153 85 4 11 0 32-8 48-52 101-90 152-114 152-7 0-32-9-56-20-187-87-377-76-491 29-66 61-83 199-32 274 88 131 275 161 499 82 56-20 85-11 108 34 8 14 26 46 41 70 49 78 36 102-74 141-139 49-369 66-480 35zm492-66c44-17 80-32 80-34 0-3-98-165-105-173-1-1-42 11-91 28-55 19-75 29-51 26 20-3 35-1 32 4-3 4 10 3 29-2 29-9 38-7 65 13 28 21 31 27 31 80 0 53-2 57-26 63-15 4-29 5-32 1-3-3 1-5 8-5 7 0 11-2 8-5-8-9-38 6-32 16 3 5-2 9-11 9-9 0-14-4-11-9 4-5-4-7-16-3-21 5-21 6-2 13 31 12 41 11 124-22z" class="color000 svgShape"/></g></svg></svg>